<?xml version="1.0" encoding="utf-8"?>
<!-- Svg Vector Icons : http://www.onlinewebfonts.com/icon -->
<!DOCTYPE svg PUBLIC "-//W3C//DTD SVG 1.1//EN" "http://www.w3.org/Graphics/SVG/1.1/DTD/svg11.dtd">
<svg version="1.1" xmlns="http://www.w3.org/2000/svg" xmlns:xlink="http://www.w3.org/1999/xlink" x="0px" y="0px" viewBox="0 0 256 256" enable-background="new 0 0 256 256" xml:space="preserve">
<metadata> Svg Vector Icons : http://www.onlinewebfonts.com/icon </metadata>
<g><g><g><g><path fill="#000000" d="M19.8,88.7h59c2.7,0,5-1,6.9-2.9c2-2,2.9-4.2,2.9-6.9v-59c0-2.7-1-5-2.9-6.9c-1.9-2-4.2-2.9-6.9-2.9h-59c-2.7,0-5,1-6.9,2.9S10,17.2,10,19.8v59c0,2.7,1,5,2.9,6.9C14.9,87.7,17.2,88.7,19.8,88.7z"/><path fill="#000000" d="M243.1,12.9c-1.9-2-4.3-2.9-6.9-2.9h-59c-2.7,0-5,1-6.9,2.9c-2,2-2.9,4.3-2.9,6.9v59c0,2.7,1,5,2.9,6.9c1.9,2,4.3,2.9,6.9,2.9h59c2.7,0,5-1,6.9-2.9c2-2,2.9-4.2,2.9-6.9v-59C246,17.2,245,14.9,243.1,12.9z"/><path fill="#000000" d="M236.2,108.3h-59c-2.6,0-5,1-6.9,2.9c-2,2-2.9,4.2-2.9,6.9v19.7c0,5.3-1.2,9.9-3.6,13.8c-2.4,3.9-5.2,6.8-8.2,8.8c-3.1,1.9-6.7,3.5-10.9,4.6c-4.2,1.1-7.5,1.8-9.8,2c-2.4,0.2-4.6,0.3-6.8,0.3c-2.1,0-4.4-0.1-6.8-0.3c-2.4-0.2-5.6-0.9-9.8-2c-4.2-1.1-7.8-2.7-10.9-4.6c-3.1-2-5.8-4.9-8.2-8.8c-2.4-3.9-3.6-8.5-3.6-13.8v-19.7c0-2.7-1-5-2.9-6.9c-2-2-4.3-2.9-6.9-2.9h-59c-2.7,0-5,1-6.9,2.9c-2,2-3,4.3-3,6.9v19.7c0,20.6,5,39.1,15.1,55.6c10.1,16.5,24.1,29.4,42.1,38.7c18,9.2,38.2,13.9,60.8,13.9c22.5,0,42.8-4.6,60.8-13.9c18-9.3,32-22.2,42.1-38.7c10.1-16.5,15.1-35,15.1-55.6v-19.7c0-2.7-1-5-2.9-6.9C241.1,109.3,238.8,108.3,236.2,108.3z"/></g></g><g></g><g></g><g></g><g></g><g></g><g></g><g></g><g></g><g></g><g></g><g></g><g></g><g></g><g></g><g></g></g></g>
</svg>